<?xml version="1.0" encoding="utf-8"?>
<!-- Generator: Adobe Illustrator 16.0.0, SVG Export Plug-In . SVG Version: 6.00 Build 0)  -->
<!DOCTYPE svg PUBLIC "-//W3C//DTD SVG 1.1//EN" "http://www.w3.org/Graphics/SVG/1.1/DTD/svg11.dtd">
<svg version="1.1" id="Layer_1" xmlns="http://www.w3.org/2000/svg" xmlns:xlink="http://www.w3.org/1999/xlink" x="0px" y="0px"
	 width="449.558px" height="122.812px" viewBox="0 0 449.558 122.812" enable-background="new 0 0 449.558 122.812"
	 xml:space="preserve">
<polygon fill="#FFFFFF" points="278.93,113.198 308.389,86.105 295.491,86.105 288.916,92.976 292.893,96.755 265.245,96.755 
	268.664,93.115 261.951,86.105 249.469,86.105 278.93,113.198 "/>
<polygon fill="#FFFFFF" points="290.959,69.669 280.209,81.892 280.209,37.179 290.959,37.179 "/>
<g>
	<polygon fill="#FFFFFF" points="278.348,82.487 278.348,29.387 267.397,34.14 267.397,53.746 252.188,36.799 236.942,36.799 	"/>
</g>
<g>
	<polygon fill="#FFFFFF" points="363.412,28.363 350.313,42.448 345.671,37.06 330.598,37.06 342.883,51.041 311.669,85.331 
		326.465,85.331 378.125,28.363 	"/>
</g>
<polygon fill="#FFFFFF" points="161.508,76.022 175.73,60.563 172.881,58.104 167.925,63.655 155.421,63.655 173.025,43.866 
	190.816,63.575 171.266,85.248 153.904,85.248 133.766,63.077 164.855,28.701 179.402,28.701 149.147,62.265 "/>
<path fill="#FFFFFF" d="M209.439,59.28l7.535-8.576l-12.645-13.91l-24.266,0.007l-5.475,5.983l18.828,20.537l-7.047,7.99v5.198
	l11.864,8.354l-0.015-21.46l19.352,21.591h15.209L209.439,59.28z M203.444,50.068l-5.456,5.569l-9.486-10.291h15.045l4.607,4.792
	L203.444,50.068z"/>
<polygon fill="#FFFFFF" points="342.498,84.929 353.25,84.929 353.25,58.169 342.498,70.392 "/>
<polygon fill="#FFFFFF" points="385.927,24.347 383.914,24.35 373.98,35.272 373.98,48.337 365.737,44.181 354.986,56.687 
	354.986,84.856 365.737,73.19 365.737,58.128 375.373,62.282 386.018,50.95 "/>
<polygon fill="#FFFFFF" points="342.498,92.708 347.92,92.708 353.25,86.786 353.25,86.408 342.498,86.408 "/>
<polygon fill="#FFFFFF" points="414.857,44.888 397.865,63.989 409.934,63.989 414.719,58.632 417.604,61.272 403.875,76.194 
	391.811,62.647 415.758,36.426 408.658,28.72 376.961,63.432 396.402,84.833 410.182,84.833 430.447,63.911 "/>
<path fill="#FFFFFF" d="M328.406,37.179l-35.5-0.033v13.973l17.594,0.031l-31.648,35.004l-44.283-49.004h-14.276l5.581,6.469
	l-13.855,15.549l7.957,8.555h27.713l23.588,25.419l-2.088,2.162h19.314l-2.248-2.351l39.51-41.717h0.008l14.455-0.174
	L328.406,37.179z M225.252,59.489l7.337-8.189l7.395,8.262L225.252,59.489z M273.738,92.798l5.117-5.539l5.119,5.539H273.738z"/>
<polygon fill="#FFFFFF" points="290.914,35.646 280.164,35.646 280.164,29.49 290.914,33.225 "/>
<line fill="#FFFFFF" x1="284.239" y1="38.097" x2="279.974" y2="42.775"/>
<line fill="#FFFFFF" x1="284.239" y1="38.097" x2="279.974" y2="42.775"/>
<line fill="#FFFFFF" x1="282.106" y1="32.897" x2="282.106" y2="32.003"/>
<path fill="#FFFFFF" d="M126.326,81.159c-1.399-0.818-2.787-1.697-4.174-2.552c-1.214-0.904-1.511-3.171-3.766-2.563
	c-1.399,0.396-2.514-0.211-3.703-0.88c-3.355-1.882-6.268-4.496-9.934-5.847c-2.266-2.13-5.301-1.808-8.014-2.514
	c-0.854-0.941-1.745-1.832-3.059-2.105c-1.461-0.334-2.922-0.656-4.385-0.979c-5.474-1.585-11.035-2.428-16.744-1.883
	c-0.607-0.854-1.586-0.52-2.391-0.73c-0.063-0.482-0.174-0.941-0.719-1.114c-0.408-0.212-0.805-0.422-1.201-0.632
	c-0.235-1.251,1.486-2.799-0.57-3.777c-1.969-3.506-1.077-7.37-1.35-11.086c0.025-0.582,0.05-1.152,0.074-1.722v-0.012
	c0.037-0.409,0.074-0.806,0.124-1.214c0.569-5.623,1.523-11.221,1.585-16.895c0.422-3.232,1.4-6.304,2.65-9.313
	c0.731-1.747,1.586-3.653-0.656-5.078c-0.359-0.842-0.607-1.87-1.92-1.177c-0.396,0.037-0.792,0.125-1.188,0.125
	c-3.258-0.038-3.505,0.334-2.329,3.442c0.174,0.471,0.335,0.94,0.496,1.425c-0.148,0.482-0.348,0.966-0.422,1.473
	c-1.374,9.018-2.736,18.034-4.111,27.051c-1.004,2.849-2.019,5.697-3.021,8.533c-1.252,1.288-2.49,2.564-3.74,3.853
	c-0.955,1.3-1.277,3.27-3.531,3.208c-0.594-0.025-0.892,0.582-0.557,1.077c1.338,1.944-0.471,2.365-1.486,3.183
	c-0.186,0.211-0.384,0.409-0.57,0.607c-1.275,1.944-2.762,3.777-3.096,6.193c-0.013-0.014-0.037-0.014-0.049-0.025
	c-0.893,4.88-3.977,8.001-8.361,9.771c-6.861,2.75-13.24,6.479-19.965,9.488c-0.595,0.26-2.514,0.471-0.781,1.895
	c-0.148,0.595-0.718,0.582-1.127,0.78c-0.482,0.446-1.981,0.396-0.768,1.623c0.26,0.272,0.52,0.532,0.793,0.805
	c0.793,2.155,1.512-0.149,2.267-0.038c0.347,0.682-0.298,1.846,0.755,2.094c0.78,0.174,1.164-0.742,1.512-1.337
	c0.669-1.14,1.98-1.858,2.154-3.308c0.434-0.161,0.867-0.334,1.289-0.495c1.832-0.247,2.588-2.192,4.1-2.923
	c0-0.012,0-0.012,0.012,0c0.272-0.05,0.57-0.186,0.855-0.273c1.671-0.42,3.331-0.94,5.027-1.263
	c4.248-0.792,7.939-2.836,11.605-4.979c1.797-1.61,4.063-1.673,6.268-1.907c3.109,1.883,6.205,3.766,9.302,5.66
	c0.11,0.817,0.31,1.584,1.214,1.919c0.334,2.255,1.672,4.088,2.575,6.106c1.636,2.91,3.258,5.821,4.893,8.731
	c0.248,1.301,1.04,2.378,1.374,3.704c0.323,1.313,0.992,2.972,2.949,3.01c1.102,0.197,1.213,1.052,1.264,1.943
	c0.619,0,1.238,0,1.857,0c1.127-1.015,2.898-1.027,3.74-2.465c1.424-0.953,1.412-2.328,1.151-3.789
	c1.598-2.799-0.483-4.954-1.251-7.345c-1.176-2.54-2.354-5.078-3.543-7.617c-0.073-0.78-0.16-1.561-0.246-2.341
	c0.531-1.623,2.129-2.961,1.287-4.93c-0.074-1.177-0.941-1.313-1.846-1.523c-0.805-0.198-1.857-0.272-1.696-1.572
	c2.217-1.178,3.976-2.961,6.774-3.345c3.704-0.495,7.346-0.458,11.036-0.321c1.635,0.049,3.331,0.359,4.458-1.326
	c2.614,0.297,4.138,2.886,6.75,3.184c4.188,1.809,8.781,1.734,13.117,2.886c0.817,1.077,1.635,2.155,2.452,3.22
	c0.446,1.041,1.375,1.276,2.366,1.425c0.445,1.485,1.746,0.644,2.612,0.966c0.236,0.223,0.458,0.459,0.682,0.682
	c1.896,1.227,4.286,1.474,5.363-0.322C130.017,83.747,128.109,82.212,126.326,81.159z"/>
</svg>
